<?xml version="1.0" encoding="UTF-8"?>
<!DOCTYPE svg PUBLIC "-//W3C//DTD SVG 1.1//EN" "http://www.w3.org/Graphics/SVG/1.1/DTD/svg11.dtd">
<svg xmlns="http://www.w3.org/2000/svg" version="1.1" width="1024px" height="1024px" style="shape-rendering:geometricPrecision; text-rendering:geometricPrecision; image-rendering:optimizeQuality; fill-rule:evenodd; clip-rule:evenodd" xmlns:xlink="http://www.w3.org/1999/xlink">
<g><path style="opacity:1" fill="#ecf4ef" d="M -0.5,-0.5 C 340.833,-0.5 682.167,-0.5 1023.5,-0.5C 1023.5,340.833 1023.5,682.167 1023.5,1023.5C 682.167,1023.5 340.833,1023.5 -0.5,1023.5C -0.5,682.167 -0.5,340.833 -0.5,-0.5 Z"/></g>
<g><path style="opacity:1" fill="#aae7be" d="M 545.5,302.5 C 534.419,302.19 523.419,302.523 512.5,303.5C 517.624,302.171 523.124,301.505 529,301.5C 534.677,301.501 540.177,301.834 545.5,302.5 Z"/></g>
<g><path style="opacity:1" fill="#0d9924" d="M 545.5,302.5 C 547.371,302.859 548.871,303.859 550,305.5C 550.811,312.414 550.645,319.248 549.5,326C 542.606,327.26 535.606,327.926 528.5,328C 525.048,331.734 522.215,335.9 520,340.5C 519.814,336.484 519.814,332.484 520,328.5C 517.931,327.736 515.764,327.236 513.5,327C 512.177,326.184 511.511,325.017 511.5,323.5C 511.207,316.745 511.54,310.078 512.5,303.5C 523.419,302.523 534.419,302.19 545.5,302.5 Z"/></g>
<g><path style="opacity:1" fill="#fce6cb" d="M 603.5,306.5 C 592.086,306.189 580.752,306.523 569.5,307.5C 574.792,306.171 580.458,305.504 586.5,305.5C 592.343,305.501 598.01,305.834 603.5,306.5 Z"/></g>
<g><path style="opacity:1" fill="#89d194" d="M 512.5,303.5 C 511.54,310.078 511.207,316.745 511.5,323.5C 510.835,320.351 510.502,317.018 510.5,313.5C 510.514,309.761 511.18,306.428 512.5,303.5 Z"/></g>
<g><path style="opacity:1" fill="#f96710" d="M 603.5,306.5 C 603.833,306.5 604.167,306.5 604.5,306.5C 605.167,307.5 605.833,308.5 606.5,309.5C 606.729,319.532 606.396,329.532 605.5,339.5C 603.143,339.337 600.81,339.503 598.5,340C 599.833,340.333 601.167,340.667 602.5,341C 592.5,341.333 582.5,341.667 572.5,342C 573.252,342.671 573.586,343.504 573.5,344.5C 572.167,344.5 570.833,344.5 569.5,344.5C 568.639,332.856 568.305,321.19 568.5,309.5C 568.328,308.508 568.662,307.842 569.5,307.5C 580.752,306.523 592.086,306.189 603.5,306.5 Z"/></g>
<g><path style="opacity:1" fill="#fbb70f" d="M 463.5,315.5 C 463.666,323.84 463.5,332.173 463,340.5C 459.801,342.586 458.968,345.253 460.5,348.5C 460.663,350.857 460.497,353.19 460,355.5C 457.588,351.084 454.422,347.251 450.5,344C 442.5,343.667 434.5,343.333 426.5,343C 425.299,342.097 424.465,340.931 424,339.5C 423.333,331.5 423.333,323.5 424,315.5C 424.833,314.667 425.667,313.833 426.5,313C 437.833,312.333 449.167,312.333 460.5,313C 461.942,313.377 462.942,314.21 463.5,315.5 Z"/></g>
<g><path style="opacity:1" fill="#fee5ca" d="M 604.5,306.5 C 606.017,306.511 607.184,307.177 608,308.5C 608.825,318.675 608.658,328.675 607.5,338.5C 607.827,328.652 607.494,318.986 606.5,309.5C 605.833,308.5 605.167,307.5 604.5,306.5 Z"/></g>
<g><path style="opacity:1" fill="#f86510" d="M 509.5,325.5 C 509.666,334.506 509.5,343.506 509,352.5C 508.167,353.333 507.333,354.167 506.5,355C 497.167,355.333 487.833,355.667 478.5,356C 476.772,359.962 475.105,363.796 473.5,367.5C 473.866,362.284 473.032,357.284 471,352.5C 470.333,343.167 470.333,333.833 471,324.5C 471.833,323.667 472.667,322.833 473.5,322C 484.167,321.333 494.833,321.333 505.5,322C 507.324,322.66 508.657,323.827 509.5,325.5 Z"/></g>
<g><path style="opacity:1" fill="#fab618" d="M 554.5,356.5 C 548.167,356.5 541.833,356.5 535.5,356.5C 535.66,358.199 535.494,359.866 535,361.5C 534.292,360.619 533.458,359.953 532.5,359.5C 530.871,358.375 529.371,357.041 528,355.5C 527.212,349.78 527.379,344.114 528.5,338.5C 537.482,337.335 546.482,337.168 555.5,338C 557.098,344.371 556.764,350.537 554.5,356.5 Z"/></g>
<g><path style="opacity:1" fill="#e76e1f" d="M 606.5,309.5 C 607.494,318.986 607.827,328.652 607.5,338.5C 606.71,339.794 605.71,340.961 604.5,342C 595.167,342.333 585.833,342.667 576.5,343C 575.473,343.513 574.473,344.013 573.5,344.5C 573.586,343.504 573.252,342.671 572.5,342C 582.5,341.667 592.5,341.333 602.5,341C 601.167,340.667 599.833,340.333 598.5,340C 600.81,339.503 603.143,339.337 605.5,339.5C 606.396,329.532 606.729,319.532 606.5,309.5 Z"/></g>
<g><path style="opacity:1" fill="#f7e8a6" d="M 463.5,315.5 C 464.18,323.902 464.846,332.402 465.5,341C 462.036,342.372 460.369,344.872 460.5,348.5C 458.968,345.253 459.801,342.586 463,340.5C 463.5,332.173 463.666,323.84 463.5,315.5 Z"/></g>
<g><path style="opacity:1" fill="#eb7d36" d="M 568.5,309.5 C 568.305,321.19 568.639,332.856 569.5,344.5C 570.833,344.5 572.167,344.5 573.5,344.5C 570.067,347.059 566.401,349.392 562.5,351.5C 562.167,351.167 561.833,350.833 561.5,350.5C 563.717,347.227 566.05,344.06 568.5,341C 566.952,335.297 566.285,329.464 566.5,323.5C 566.667,319.167 566.833,314.833 567,310.5C 567.383,309.944 567.883,309.611 568.5,309.5 Z"/></g>
<g><path style="opacity:1" fill="#ffdfc1" d="M 509.5,325.5 C 510.658,334.657 510.824,343.991 510,353.5C 508.786,355.049 507.286,356.215 505.5,357C 496.506,357.5 487.506,357.666 478.5,357.5C 477.962,361.524 477.295,365.524 476.5,369.5C 474.821,369.715 473.821,369.048 473.5,367.5C 475.105,363.796 476.772,359.962 478.5,356C 487.833,355.667 497.167,355.333 506.5,355C 507.333,354.167 508.167,353.333 509,352.5C 509.5,343.506 509.666,334.506 509.5,325.5 Z"/></g>
<g><path style="opacity:1" fill="#fbebaf" d="M 554.5,356.5 C 548.69,357.49 542.69,357.823 536.5,357.5C 536.261,359.467 536.594,361.301 537.5,363C 534.808,363.319 533.142,362.153 532.5,359.5C 533.458,359.953 534.292,360.619 535,361.5C 535.494,359.866 535.66,358.199 535.5,356.5C 541.833,356.5 548.167,356.5 554.5,356.5 Z"/></g>
<g><path style="opacity:1" fill="#f86815" d="M 581.5,354.5 C 593.934,354.04 606.267,354.54 618.5,356C 619,356.5 619.5,357 620,357.5C 620.667,365.167 620.667,372.833 620,380.5C 619.167,381.333 618.333,382.167 617.5,383C 608.5,383.333 599.5,383.667 590.5,384C 587.333,386.5 584.167,389 581,391.5C 581.049,389.325 581.549,387.158 582.5,385C 581.924,383.286 580.757,382.119 579,381.5C 578.333,373.5 578.333,365.5 579,357.5C 580.045,356.627 580.878,355.627 581.5,354.5 Z"/></g>
<g><path style="opacity:1" fill="#ebb849" d="M 439.5,359.5 C 427.45,359.207 415.45,359.541 403.5,360.5C 403.611,359.883 403.944,359.383 404.5,359C 416.341,358.174 428.007,358.341 439.5,359.5 Z"/></g>
<g><path style="opacity:1" fill="#faa512" d="M 439.5,359.5 C 441.062,359.733 442.395,360.4 443.5,361.5C 443.666,369.174 443.5,376.841 443,384.5C 441.286,386.043 439.786,387.71 438.5,389.5C 439.167,391.167 439.833,392.833 440.5,394.5C 440.167,395.167 439.833,395.833 439.5,396.5C 438.148,395.476 436.815,394.476 435.5,393.5C 434.04,391.537 432.373,389.704 430.5,388C 421.833,387.667 413.167,387.333 404.5,387C 404,386.5 403.5,386 403,385.5C 401.896,381.28 401.396,376.947 401.5,372.5C 401.667,368.833 401.833,365.167 402,361.5C 402.383,360.944 402.883,360.611 403.5,360.5C 415.45,359.541 427.45,359.207 439.5,359.5 Z"/></g>
<g><path style="opacity:1" fill="#023919" d="M 472.5,386.5 C 471.292,385.766 469.959,385.433 468.5,385.5C 469.471,384.038 469.138,382.705 467.5,381.5C 462.491,380.12 461.824,377.953 465.5,375C 469.441,372.861 473.441,371.028 477.5,369.5C 483.909,369.441 490.242,370.108 496.5,371.5C 504.002,368.59 511.668,367.923 519.5,369.5C 519.833,369.833 520.167,370.167 520.5,370.5C 518.922,371.298 517.256,371.798 515.5,372C 519.211,372.175 522.878,372.675 526.5,373.5C 525.352,375.149 524.019,376.649 522.5,378C 523.296,381.506 522.629,384.84 520.5,388C 523.001,389.418 522.668,390.418 519.5,391C 520.357,391.689 521.023,392.522 521.5,393.5C 516.446,396.308 511.446,399.308 506.5,402.5C 505.21,404.657 504.376,406.99 504,409.5C 500.617,410.519 498.283,409.185 497,405.5C 496.358,403.238 495.525,401.071 494.5,399C 495.574,398.261 496.241,397.261 496.5,396C 496.06,393.072 494.893,390.238 493,387.5C 490.315,384.555 487.148,383.555 483.5,384.5C 480.177,383.062 479.844,381.229 482.5,379C 482.167,378.667 481.833,378.333 481.5,378C 484.06,377.773 485.726,376.44 486.5,374C 479.863,375.796 475.196,379.962 472.5,386.5 Z"/></g>
<g><path style="opacity:1" fill="#b1ecfa" d="M 574.5,389.5 C 571.522,392.549 572.189,394.215 576.5,394.5C 576.5,393.167 576.5,391.833 576.5,390.5C 578.448,392.32 579.448,394.654 579.5,397.5C 577.959,401.487 576.125,401.487 574,397.5C 572.654,400.591 570.488,402.924 567.5,404.5C 568.506,405.396 568.506,406.062 567.5,406.5C 561.906,402.376 562.406,400.71 569,401.5C 569.507,400.004 569.007,398.837 567.5,398C 564.04,395.935 560.374,394.435 556.5,393.5C 554.209,393.622 552.209,394.455 550.5,396C 548.242,401.193 545.242,405.86 541.5,410C 544.077,412.756 546.077,415.922 547.5,419.5C 543.377,422.122 539.71,425.289 536.5,429C 536.95,430.285 537.617,431.452 538.5,432.5C 536.257,433.474 533.924,433.808 531.5,433.5C 530.732,437.83 532.065,441.163 535.5,443.5C 532.242,448.117 529.075,452.784 526,457.5C 526.314,461.21 526.147,464.876 525.5,468.5C 529.713,476.753 536.046,478.753 544.5,474.5C 548.783,474.756 550.117,476.756 548.5,480.5C 551.93,485.687 552.263,491.02 549.5,496.5C 550.598,500.423 551.265,504.423 551.5,508.5C 543.233,512.422 534.567,515.255 525.5,517C 521.167,517.167 516.833,517.333 512.5,517.5C 507.778,517.492 503.445,516.825 499.5,515.5C 501.18,513.473 502.347,511.139 503,508.5C 508.774,506.703 511.107,502.703 510,496.5C 510.615,494.884 511.615,493.551 513,492.5C 513.798,490.741 513.631,489.074 512.5,487.5C 507.811,485.086 502.978,484.086 498,484.5C 498.195,482.874 498.195,481.207 498,479.5C 495.414,477.455 492.58,475.789 489.5,474.5C 488.833,473.5 488.167,472.5 487.5,471.5C 485.167,472.833 482.833,472.833 480.5,471.5C 479.497,473.542 478.163,473.875 476.5,472.5C 475.416,473.665 474.583,474.998 474,476.5C 472.601,475.773 471.101,475.273 469.5,475C 468.565,472.619 468.232,470.119 468.5,467.5C 467.167,467.5 465.833,467.5 464.5,467.5C 464.972,461.364 463.639,460.531 460.5,465C 459.216,465.684 458.049,465.517 457,464.5C 454.267,459.684 455.1,455.851 459.5,453C 461.891,452.713 464.224,452.213 466.5,451.5C 468.4,453.619 470.066,455.953 471.5,458.5C 471.833,458.167 472.167,457.833 472.5,457.5C 469.474,453.61 469.974,450.276 474,447.5C 474.54,444.639 475.54,441.972 477,439.5C 480,437.833 482.333,435.5 484,432.5C 484.617,433.449 484.451,434.282 483.5,435C 485.788,435.418 487.788,434.751 489.5,433C 488.5,432.667 487.5,432.333 486.5,432C 485.816,430.307 484.816,428.807 483.5,427.5C 486.263,426.748 488.93,425.748 491.5,424.5C 491.88,426.021 492.046,427.687 492,429.5C 493.494,430.747 494.994,430.747 496.5,429.5C 494.904,427.04 493.738,424.374 493,421.5C 490.23,419.399 488.23,416.732 487,413.5C 485.68,413.201 484.18,413.034 482.5,413C 481.084,409.221 478.584,407.721 475,408.5C 474.259,411.562 474.425,414.562 475.5,417.5C 474.915,420.503 474.248,423.503 473.5,426.5C 473.167,426.333 472.833,426.167 472.5,426C 471.782,424.013 470.782,422.179 469.5,420.5C 460.467,417.994 459.133,413.327 465.5,406.5C 466.458,406.047 467.292,405.381 468,404.5C 468.333,405.5 468.667,406.5 469,407.5C 470.067,406.809 471.234,406.309 472.5,406C 471.643,405.311 470.977,404.478 470.5,403.5C 474.506,393.011 477.006,393.344 478,404.5C 477.086,403.346 476.253,403.513 475.5,405C 478.259,406.238 481.093,407.404 484,408.5C 485.713,407.863 485.879,406.863 484.5,405.5C 485.376,404.749 486.376,404.249 487.5,404C 487.532,396.776 483.532,391.942 475.5,389.5C 474.694,388.272 473.694,387.272 472.5,386.5C 475.196,379.962 479.863,375.796 486.5,374C 485.726,376.44 484.06,377.773 481.5,378C 481.833,378.333 482.167,378.667 482.5,379C 479.844,381.229 480.177,383.062 483.5,384.5C 487.148,383.555 490.315,384.555 493,387.5C 494.893,390.238 496.06,393.072 496.5,396C 496.241,397.261 495.574,398.261 494.5,399C 495.525,401.071 496.358,403.238 497,405.5C 498.283,409.185 500.617,410.519 504,409.5C 504.376,406.99 505.21,404.657 506.5,402.5C 511.446,399.308 516.446,396.308 521.5,393.5C 521.023,392.522 520.357,391.689 519.5,391C 522.668,390.418 523.001,389.418 520.5,388C 522.629,384.84 523.296,381.506 522.5,378C 524.019,376.649 525.352,375.149 526.5,373.5C 522.878,372.675 519.211,372.175 515.5,372C 517.256,371.798 518.922,371.298 520.5,370.5C 520.167,370.167 519.833,369.833 519.5,369.5C 511.668,367.923 504.002,368.59 496.5,371.5C 490.242,370.108 483.909,369.441 477.5,369.5C 490.546,362.616 504.546,360.116 519.5,362C 541.124,364.838 559.457,374.005 574.5,389.5 Z"/></g>
<g><path style="opacity:1" fill="#043a32" d="M 552.5,378.5 C 552.843,376.775 553.843,376.275 555.5,377C 554.473,377.513 553.473,378.013 552.5,378.5 Z"/></g>
<g><path style="opacity:1" fill="#9ac7b9" d="M 467.5,381.5 C 467.67,380.178 467.337,379.011 466.5,378C 471.179,377.25 471.512,378.417 467.5,381.5 Z"/></g>
<g><path style="opacity:1" fill="#578a79" d="M 460.5,382.5 C 460.167,382.5 459.833,382.5 459.5,382.5C 458.833,382.167 458.167,381.833 457.5,381.5C 459.437,379.674 461.437,379.507 463.5,381C 462.263,381.232 461.263,381.732 460.5,382.5 Z"/></g>
<g><path style="opacity:1" fill="#0f3c27" d="M 552.5,378.5 C 555.353,382.147 555.02,382.813 551.5,380.5C 550.719,381.737 549.719,382.737 548.5,383.5C 546.614,382.07 544.947,380.403 543.5,378.5C 545.689,377.827 547.689,376.827 549.5,375.5C 551.271,376.035 551.604,376.869 550.5,378C 551.094,378.464 551.761,378.631 552.5,378.5 Z"/></g>
<g><path style="opacity:1" fill="#144937" d="M 456.5,382.5 C 456.539,383.583 456.873,384.583 457.5,385.5C 455.089,386.361 453.089,387.694 451.5,389.5C 451.389,388.883 451.056,388.383 450.5,388C 452.37,385.96 454.37,384.127 456.5,382.5 Z"/></g>
<g><path style="opacity:1" fill="#15422b" d="M 459.5,382.5 C 459.833,382.5 460.167,382.5 460.5,382.5C 463.31,383.199 465.977,384.199 468.5,385.5C 468.5,386.167 468.167,386.5 467.5,386.5C 464.896,387.53 462.229,387.53 459.5,386.5C 459.5,385.167 459.5,383.833 459.5,382.5 Z"/></g>
<g><path style="opacity:1" fill="#eff0dd" d="M 443.5,361.5 C 444.167,367.679 444.833,374.012 445.5,380.5C 446.799,379.91 447.632,378.91 448,377.5C 448.497,379.81 448.663,382.143 448.5,384.5C 444.845,384.472 442.178,386.139 440.5,389.5C 440.833,389.833 441.167,390.167 441.5,390.5C 442.93,388.614 444.597,386.947 446.5,385.5C 446.833,385.833 447.167,386.167 447.5,386.5C 444.206,389.378 442.872,393.044 443.5,397.5C 443.833,398.167 444.167,398.833 444.5,399.5C 443.022,399.238 441.689,399.571 440.5,400.5C 438.725,403.738 436.725,406.738 434.5,409.5C 435.342,405.807 436.675,402.307 438.5,399C 436.837,397.505 435.837,395.672 435.5,393.5C 436.815,394.476 438.148,395.476 439.5,396.5C 439.833,395.833 440.167,395.167 440.5,394.5C 439.833,392.833 439.167,391.167 438.5,389.5C 439.786,387.71 441.286,386.043 443,384.5C 443.5,376.841 443.666,369.174 443.5,361.5 Z"/></g>
<g><path style="opacity:1" fill="#b6e1de" d="M 457.5,381.5 C 458.167,381.833 458.833,382.167 459.5,382.5C 459.5,383.833 459.5,385.167 459.5,386.5C 462.229,387.53 464.896,387.53 467.5,386.5C 468.833,387.5 468.833,388.5 467.5,389.5C 467.192,391.924 467.526,394.257 468.5,396.5C 470.214,395.391 470.881,396.058 470.5,398.5C 468.278,398.822 466.444,398.155 465,396.5C 464.747,393.8 464.747,391.133 465,388.5C 463.887,389.711 462.72,389.711 461.5,388.5C 459.554,390.044 459.054,392.044 460,394.5C 461.456,395.92 462.956,397.253 464.5,398.5C 463.132,399.594 461.965,399.26 461,397.5C 460.283,398.044 459.783,398.711 459.5,399.5C 458.833,399.5 458.167,399.5 457.5,399.5C 456.508,399.672 455.842,399.338 455.5,398.5C 455.628,396.146 455.961,393.646 456.5,391C 456.167,390.5 455.833,390 455.5,389.5C 454.5,390.167 453.5,390.833 452.5,391.5C 451.702,391.043 451.369,390.376 451.5,389.5C 453.089,387.694 455.089,386.361 457.5,385.5C 456.873,384.583 456.539,383.583 456.5,382.5C 456.5,381.833 456.833,381.5 457.5,381.5 Z"/></g>
<g><path style="opacity:1" fill="#457f73" d="M 468.5,385.5 C 469.959,385.433 471.292,385.766 472.5,386.5C 473.694,387.272 474.694,388.272 475.5,389.5C 472.833,389.5 470.167,389.5 467.5,389.5C 468.833,388.5 468.833,387.5 467.5,386.5C 468.167,386.5 468.5,386.167 468.5,385.5 Z"/></g>
<g><path style="opacity:1" fill="#05351a" d="M 451.5,389.5 C 451.369,390.376 451.702,391.043 452.5,391.5C 453.5,390.833 454.5,390.167 455.5,389.5C 455.833,390 456.167,390.5 456.5,391C 455.961,393.646 455.628,396.146 455.5,398.5C 453.795,397.465 452.128,397.465 450.5,398.5C 448.466,397.441 446.466,396.441 444.5,395.5C 445.242,392.214 447.075,390.88 450,391.5C 450.278,390.584 450.778,389.918 451.5,389.5 Z"/></g>
<g><path style="opacity:1" fill="#0c3c2c" d="M 574.5,389.5 C 575.492,389.328 576.158,389.662 576.5,390.5C 576.5,391.833 576.5,393.167 576.5,394.5C 572.189,394.215 571.522,392.549 574.5,389.5 Z"/></g>
<g><path style="opacity:1" fill="#80b9b7" d="M 444.5,395.5 C 446.466,396.441 448.466,397.441 450.5,398.5C 452.128,397.465 453.795,397.465 455.5,398.5C 455.842,399.338 456.508,399.672 457.5,399.5C 454.994,400.663 452.327,400.663 449.5,399.5C 448.353,399.818 447.519,400.484 447,401.5C 446.292,400.619 445.458,399.953 444.5,399.5C 444.167,398.833 443.833,398.167 443.5,397.5C 444.338,397.158 444.672,396.492 444.5,395.5 Z"/></g>
<g><path style="opacity:1" fill="#08391e" d="M 467.5,389.5 C 470.167,389.5 472.833,389.5 475.5,389.5C 483.532,391.942 487.532,396.776 487.5,404C 486.376,404.249 485.376,404.749 484.5,405.5C 485.879,406.863 485.713,407.863 484,408.5C 481.093,407.404 478.259,406.238 475.5,405C 476.253,403.513 477.086,403.346 478,404.5C 477.006,393.344 474.506,393.011 470.5,403.5C 470.977,404.478 471.643,405.311 472.5,406C 471.234,406.309 470.067,406.809 469,407.5C 468.667,406.5 468.333,405.5 468,404.5C 467.292,405.381 466.458,406.047 465.5,406.5C 465.5,405.167 465.5,403.833 465.5,402.5C 464.167,402.5 462.833,402.5 461.5,402.5C 461.715,400.821 461.048,399.821 459.5,399.5C 459.783,398.711 460.283,398.044 461,397.5C 461.965,399.26 463.132,399.594 464.5,398.5C 462.956,397.253 461.456,395.92 460,394.5C 459.054,392.044 459.554,390.044 461.5,388.5C 462.72,389.711 463.887,389.711 465,388.5C 464.747,391.133 464.747,393.8 465,396.5C 466.444,398.155 468.278,398.822 470.5,398.5C 470.881,396.058 470.214,395.391 468.5,396.5C 467.526,394.257 467.192,391.924 467.5,389.5 Z"/></g>
<g><path style="opacity:1" fill="#104125" d="M 519.5,400.5 C 522.722,400.108 525.722,400.608 528.5,402C 524.201,407.16 521.201,406.66 519.5,400.5 Z"/></g>
<g><path style="opacity:1" fill="#023a18" d="M 579.5,397.5 C 592.681,414.523 597.848,433.856 595,455.5C 594.819,458.695 594.319,461.695 593.5,464.5C 592.833,460.833 592.167,457.167 591.5,453.5C 588.332,452.136 584.999,451.303 581.5,451C 580.845,449.513 579.845,448.347 578.5,447.5C 577.5,450.242 578.5,452.242 581.5,453.5C 584.796,452.442 586.463,453.775 586.5,457.5C 583.474,460.523 580.141,463.19 576.5,465.5C 574.259,460.683 571.759,456.017 569,451.5C 568.107,450.289 567.274,450.289 566.5,451.5C 569.254,456.008 571.754,460.674 574,465.5C 576.147,466.113 578.314,466.779 580.5,467.5C 578.089,473.329 574.922,478.662 571,483.5C 571.046,486.8 571.212,490.134 571.5,493.5C 569.265,494.228 567.432,495.561 566,497.5C 564.415,505.247 559.915,510.247 552.5,512.5C 552.567,511.041 552.234,509.708 551.5,508.5C 551.265,504.423 550.598,500.423 549.5,496.5C 552.263,491.02 551.93,485.687 548.5,480.5C 550.117,476.756 548.783,474.756 544.5,474.5C 536.046,478.753 529.713,476.753 525.5,468.5C 526.147,464.876 526.314,461.21 526,457.5C 529.075,452.784 532.242,448.117 535.5,443.5C 532.065,441.163 530.732,437.83 531.5,433.5C 533.924,433.808 536.257,433.474 538.5,432.5C 537.617,431.452 536.95,430.285 536.5,429C 539.71,425.289 543.377,422.122 547.5,419.5C 546.077,415.922 544.077,412.756 541.5,410C 545.242,405.86 548.242,401.193 550.5,396C 552.209,394.455 554.209,393.622 556.5,393.5C 560.374,394.435 564.04,395.935 567.5,398C 569.007,398.837 569.507,400.004 569,401.5C 562.406,400.71 561.906,402.376 567.5,406.5C 568.506,406.062 568.506,405.396 567.5,404.5C 570.488,402.924 572.654,400.591 574,397.5C 576.125,401.487 577.959,401.487 579.5,397.5 Z"/></g>
<g><path style="opacity:1" fill="#b2e4e8" d="M 555.5,402.5 C 556.239,402.369 556.906,402.536 557.5,403C 556.373,404.753 555.373,406.587 554.5,408.5C 555.714,410.069 557.381,410.902 559.5,411C 557.823,412.995 556.323,415.161 555,417.5C 553.559,418.87 551.892,419.87 550,420.5C 550.11,417.665 550.944,414.998 552.5,412.5C 552.244,411.311 551.911,410.144 551.5,409C 552.713,406.738 554.046,404.571 555.5,402.5 Z"/></g>
<g><path style="opacity:1" fill="#0b3d21" d="M 535.5,413.5 C 537.378,416.245 539.045,419.245 540.5,422.5C 539.054,424.725 537.054,425.558 534.5,425C 536.275,421.606 535.608,418.94 532.5,417C 533.365,415.641 534.365,414.474 535.5,413.5 Z"/></g>
<g><path style="opacity:1" fill="#103627" d="M 531.5,419.5 C 533.176,420.183 533.843,421.517 533.5,423.5C 529.155,423.702 528.488,422.369 531.5,419.5 Z"/></g>
<g><path style="opacity:1" fill="#9dcec8" d="M 571.5,428.5 C 574.719,429.021 575.719,430.688 574.5,433.5C 572.738,432.312 571.738,430.645 571.5,428.5 Z"/></g>
<g><path style="opacity:1" fill="#bbe8ed" d="M 563.5,430.5 C 567.703,429.702 570.37,431.369 571.5,435.5C 568.572,436.484 565.572,436.817 562.5,436.5C 562.325,434.379 562.659,432.379 563.5,430.5 Z"/></g>
<g><path style="opacity:1" fill="#bbeef2" d="M 549.5,431.5 C 553.856,433.527 556.856,436.861 558.5,441.5C 559.643,437.875 560.976,437.709 562.5,441C 564.5,441.333 566.5,441.667 568.5,442C 569.711,443.113 569.711,444.28 568.5,445.5C 564.186,446.04 560.019,447.04 556,448.5C 554.105,447.311 552.105,446.311 550,445.5C 549.808,443.423 549.308,441.423 548.5,439.5C 544.669,441.411 540.669,442.578 536.5,443C 538.918,438.994 541.918,435.494 545.5,432.5C 547.524,434.358 549.691,436.025 552,437.5C 552.617,438.449 552.451,439.282 551.5,440C 552.965,440.601 553.965,440.101 554.5,438.5C 552.395,436.408 550.728,434.075 549.5,431.5 Z"/></g>
<g><path style="opacity:1" fill="#3e7567" d="M 476.5,463.5 C 474.4,463.523 472.567,462.856 471,461.5C 469.535,462.33 468.035,462.496 466.5,462C 470.434,459.601 473.768,460.101 476.5,463.5 Z"/></g>
<g><path style="opacity:1" fill="#03261e" d="M 479.5,462.5 C 479.5,463.167 479.5,463.833 479.5,464.5C 478.105,465.815 477.105,465.481 476.5,463.5C 477.609,463.443 478.609,463.11 479.5,462.5 Z"/></g>
<g><path style="opacity:1" fill="#497e7c" d="M 479.5,462.5 C 485.966,463.623 485.966,464.29 479.5,464.5C 479.5,463.833 479.5,463.167 479.5,462.5 Z"/></g>
<g><path style="opacity:1" fill="#6fc3ea" d="M 430.5,423.5 C 431.866,426.089 432.866,428.922 433.5,432C 431.368,438.604 432.534,444.438 437,449.5C 437.022,453.325 438.522,456.325 441.5,458.5C 443.173,459.343 444.34,460.676 445,462.5C 450.589,484.24 463.089,500.573 482.5,511.5C 483.108,516.953 484.108,522.287 485.5,527.5C 471.576,524.084 459.742,517.084 450,506.5C 428.508,482.208 422.008,454.542 430.5,423.5 Z"/></g>
<g><path style="opacity:1" fill="#b0edf9" d="M 482.5,511.5 C 463.089,500.573 450.589,484.24 445,462.5C 444.34,460.676 443.173,459.343 441.5,458.5C 440.365,456.255 439.865,453.922 440,451.5C 443.833,456.667 447.667,461.833 451.5,467C 458.877,467.519 464.543,470.852 468.5,477C 470.134,477.494 471.801,477.66 473.5,477.5C 472.599,481.452 471.599,485.452 470.5,489.5C 473.776,494.279 477.609,498.612 482,502.5C 482.498,505.482 482.665,508.482 482.5,511.5 Z"/></g>
<g><path style="opacity:1" fill="#94dcf5" d="M 591.5,453.5 C 591.5,454.5 591.5,455.5 591.5,456.5C 590.5,456.5 589.5,456.5 588.5,456.5C 588.84,459.144 588.173,461.477 586.5,463.5C 587.04,464.748 587.707,465.915 588.5,467C 587.196,467.804 586.529,468.971 586.5,470.5C 587.406,474.109 586.572,477.443 584,480.5C 581.098,482.511 578.598,484.844 576.5,487.5C 576.317,482.548 577.651,478.048 580.5,474C 580.167,473.667 579.833,473.333 579.5,473C 581.177,467.495 583.511,462.328 586.5,457.5C 586.463,453.775 584.796,452.442 581.5,453.5C 578.5,452.242 577.5,450.242 578.5,447.5C 579.845,448.347 580.845,449.513 581.5,451C 584.999,451.303 588.332,452.136 591.5,453.5 Z"/></g>
<g><path style="opacity:1" fill="#013b19" d="M 444.5,399.5 C 445.458,399.953 446.292,400.619 447,401.5C 447.519,400.484 448.353,399.818 449.5,399.5C 452.327,400.663 454.994,400.663 457.5,399.5C 458.167,399.5 458.833,399.5 459.5,399.5C 461.048,399.821 461.715,400.821 461.5,402.5C 462.833,402.5 464.167,402.5 465.5,402.5C 465.5,403.833 465.5,405.167 465.5,406.5C 459.133,413.327 460.467,417.994 469.5,420.5C 470.782,422.179 471.782,424.013 472.5,426C 472.833,426.167 473.167,426.333 473.5,426.5C 474.248,423.503 474.915,420.503 475.5,417.5C 474.425,414.562 474.259,411.562 475,408.5C 478.584,407.721 481.084,409.221 482.5,413C 484.18,413.034 485.68,413.201 487,413.5C 488.23,416.732 490.23,419.399 493,421.5C 493.738,424.374 494.904,427.04 496.5,429.5C 494.994,430.747 493.494,430.747 492,429.5C 492.046,427.687 491.88,426.021 491.5,424.5C 488.93,425.748 486.263,426.748 483.5,427.5C 484.816,428.807 485.816,430.307 486.5,432C 487.5,432.333 488.5,432.667 489.5,433C 487.788,434.751 485.788,435.418 483.5,435C 484.451,434.282 484.617,433.449 484,432.5C 482.333,435.5 480,437.833 477,439.5C 475.54,441.972 474.54,444.639 474,447.5C 469.974,450.276 469.474,453.61 472.5,457.5C 472.167,457.833 471.833,458.167 471.5,458.5C 470.066,455.953 468.4,453.619 466.5,451.5C 464.224,452.213 461.891,452.713 459.5,453C 455.1,455.851 454.267,459.684 457,464.5C 458.049,465.517 459.216,465.684 460.5,465C 463.639,460.531 464.972,461.364 464.5,467.5C 465.833,467.5 467.167,467.5 468.5,467.5C 468.232,470.119 468.565,472.619 469.5,475C 471.101,475.273 472.601,475.773 474,476.5C 474.583,474.998 475.416,473.665 476.5,472.5C 478.163,473.875 479.497,473.542 480.5,471.5C 482.833,472.833 485.167,472.833 487.5,471.5C 488.167,472.5 488.833,473.5 489.5,474.5C 492.58,475.789 495.414,477.455 498,479.5C 498.195,481.207 498.195,482.874 498,484.5C 502.978,484.086 507.811,485.086 512.5,487.5C 513.631,489.074 513.798,490.741 513,492.5C 511.615,493.551 510.615,494.884 510,496.5C 511.107,502.703 508.774,506.703 503,508.5C 502.347,511.139 501.18,513.473 499.5,515.5C 497.435,519.102 494.768,522.269 491.5,525C 492.244,526.815 492.911,528.648 493.5,530.5C 492.448,530.351 491.448,530.517 490.5,531C 491.451,531.718 491.617,532.551 491,533.5C 488.932,531.604 487.099,529.604 485.5,527.5C 484.108,522.287 483.108,516.953 482.5,511.5C 482.665,508.482 482.498,505.482 482,502.5C 477.609,498.612 473.776,494.279 470.5,489.5C 471.599,485.452 472.599,481.452 473.5,477.5C 471.801,477.66 470.134,477.494 468.5,477C 464.543,470.852 458.877,467.519 451.5,467C 447.667,461.833 443.833,456.667 440,451.5C 439.865,453.922 440.365,456.255 441.5,458.5C 438.522,456.325 437.022,453.325 437,449.5C 432.534,444.438 431.368,438.604 433.5,432C 432.866,428.922 431.866,426.089 430.5,423.5C 431.219,418.673 432.553,414.007 434.5,409.5C 436.725,406.738 438.725,403.738 440.5,400.5C 441.689,399.571 443.022,399.238 444.5,399.5 Z"/></g>
<g><path style="opacity:1" fill="#a9e5f0" d="M 586.5,457.5 C 583.511,462.328 581.177,467.495 579.5,473C 579.833,473.333 580.167,473.667 580.5,474C 577.651,478.048 576.317,482.548 576.5,487.5C 576.5,487.833 576.5,488.167 576.5,488.5C 575.194,490.473 573.527,492.139 571.5,493.5C 571.212,490.134 571.046,486.8 571,483.5C 574.922,478.662 578.089,473.329 580.5,467.5C 578.314,466.779 576.147,466.113 574,465.5C 571.754,460.674 569.254,456.008 566.5,451.5C 567.274,450.289 568.107,450.289 569,451.5C 571.759,456.017 574.259,460.683 576.5,465.5C 580.141,463.19 583.474,460.523 586.5,457.5 Z"/></g>
<g><path style="opacity:1" fill="#103e25" d="M 576.5,488.5 C 577.097,488.735 577.43,489.235 577.5,490C 575.894,494.505 573.727,498.672 571,502.5C 570.699,499.493 570.865,496.493 571.5,493.5C 573.527,492.139 575.194,490.473 576.5,488.5 Z"/></g>
<g><path style="opacity:1" fill="#73c6eb" d="M 591.5,453.5 C 592.167,457.167 592.833,460.833 593.5,464.5C 585.067,500.099 563.067,522.266 527.5,531C 516.067,533.109 504.734,532.943 493.5,530.5C 492.911,528.648 492.244,526.815 491.5,525C 494.768,522.269 497.435,519.102 499.5,515.5C 503.445,516.825 507.778,517.492 512.5,517.5C 516.833,517.333 521.167,517.167 525.5,517C 534.567,515.255 543.233,512.422 551.5,508.5C 552.234,509.708 552.567,511.041 552.5,512.5C 559.915,510.247 564.415,505.247 566,497.5C 567.432,495.561 569.265,494.228 571.5,493.5C 570.865,496.493 570.699,499.493 571,502.5C 573.727,498.672 575.894,494.505 577.5,490C 577.43,489.235 577.097,488.735 576.5,488.5C 576.5,488.167 576.5,487.833 576.5,487.5C 578.598,484.844 581.098,482.511 584,480.5C 586.572,477.443 587.406,474.109 586.5,470.5C 586.529,468.971 587.196,467.804 588.5,467C 587.707,465.915 587.04,464.748 586.5,463.5C 588.173,461.477 588.84,459.144 588.5,456.5C 589.5,456.5 590.5,456.5 591.5,456.5C 591.5,455.5 591.5,454.5 591.5,453.5 Z"/></g>
<g><path style="opacity:1" fill="#020903" d="M 363.5,586.5 C 367.97,587.486 372.637,587.819 377.5,587.5C 377.5,590.167 377.5,592.833 377.5,595.5C 369.5,595.5 361.5,595.5 353.5,595.5C 353.5,582.5 353.5,569.5 353.5,556.5C 356.5,556.5 359.5,556.5 362.5,556.5C 362.173,566.681 362.506,576.681 363.5,586.5 Z"/></g>
<g><path style="opacity:1" fill="#0b110c" d="M 394.5,555.5 C 398.437,555.207 402.27,555.54 406,556.5C 410.684,569.716 414.851,583.05 418.5,596.5C 415.167,596.5 411.833,596.5 408.5,596.5C 408.916,590.003 405.916,587.337 399.5,588.5C 393.084,587.337 390.084,590.003 390.5,596.5C 387.102,596.82 383.768,596.487 380.5,595.5C 384.975,582.074 389.642,568.741 394.5,555.5 Z"/></g>
<g><path style="opacity:1" fill="#060d07" d="M 450.5,576.5 C 451.499,570.592 451.833,563.926 451.5,556.5C 454.167,556.5 456.833,556.5 459.5,556.5C 459.5,569.5 459.5,582.5 459.5,595.5C 457.372,596.629 455.039,596.796 452.5,596C 447.121,588.743 441.621,581.577 436,574.5C 435.5,581.826 435.334,589.159 435.5,596.5C 432.5,596.5 429.5,596.5 426.5,596.5C 426.5,582.833 426.5,569.167 426.5,555.5C 428.857,555.337 431.19,555.503 433.5,556C 439.031,563.023 444.698,569.857 450.5,576.5 Z"/></g>
<g><path style="opacity:1" fill="#050c06" d="M 514.5,555.5 C 517.833,555.5 521.167,555.5 524.5,555.5C 524.334,564.506 524.5,573.506 525,582.5C 527.467,586.559 530.967,587.559 535.5,585.5C 536.584,584.335 537.417,583.002 538,581.5C 538.5,572.84 538.666,564.173 538.5,555.5C 541.833,555.5 545.167,555.5 548.5,555.5C 548.899,565.898 548.399,576.232 547,586.5C 540.892,596.737 532.392,599.237 521.5,594C 519.291,592.127 517.458,589.96 516,587.5C 514.597,576.898 514.097,566.231 514.5,555.5 Z"/></g>
<g><path style="opacity:1" fill="#090f0a" d="M 565.5,595.5 C 561.958,595.813 558.625,595.479 555.5,594.5C 559.509,582.137 563.676,569.804 568,557.5C 569.87,556.257 572.036,555.59 574.5,555.5C 576.759,555.532 578.925,555.866 581,556.5C 585.476,569.426 589.642,582.426 593.5,595.5C 590.102,595.82 586.768,595.487 583.5,594.5C 582.634,589.611 579.634,587.611 574.5,588.5C 568.668,587.392 565.668,589.725 565.5,595.5 Z"/></g>
<g><path style="opacity:1" fill="#0a100b" d="M 622.5,586.5 C 623.461,584.735 623.795,582.735 623.5,580.5C 621.5,580.5 619.5,580.5 617.5,580.5C 617.5,578.5 617.5,576.5 617.5,574.5C 622.833,574.5 628.167,574.5 633.5,574.5C 633.666,579.844 633.499,585.177 633,590.5C 621.94,599.156 611.607,598.489 602,588.5C 594.442,573.476 598.275,562.643 613.5,556C 619.924,554.607 625.757,555.773 631,559.5C 630.885,562.343 629.718,564.843 627.5,567C 623.836,565.133 619.836,564.466 615.5,565C 613,566.167 611.167,568 610,570.5C 606.826,581.873 610.992,587.206 622.5,586.5 Z"/></g>
<g><path style="opacity:1" fill="#070e08" d="M 643.5,555.5 C 651.833,555.5 660.167,555.5 668.5,555.5C 668.5,558.167 668.5,560.833 668.5,563.5C 663.5,563.5 658.5,563.5 653.5,563.5C 653.5,566.167 653.5,568.833 653.5,571.5C 657.5,571.5 661.5,571.5 665.5,571.5C 665.5,574.5 665.5,577.5 665.5,580.5C 661.5,580.5 657.5,580.5 653.5,580.5C 653.5,582.833 653.5,585.167 653.5,587.5C 658.5,587.5 663.5,587.5 668.5,587.5C 668.5,590.167 668.5,592.833 668.5,595.5C 660.167,595.5 651.833,595.5 643.5,595.5C 643.5,582.167 643.5,568.833 643.5,555.5 Z"/></g>
<g><path style="opacity:1" fill="#505952" d="M 459.5,595.5 C 459.5,582.5 459.5,569.5 459.5,556.5C 456.833,556.5 454.167,556.5 451.5,556.5C 451.833,563.926 451.499,570.592 450.5,576.5C 450.5,569.5 450.5,562.5 450.5,555.5C 453.833,555.5 457.167,555.5 460.5,555.5C 460.829,569.01 460.496,582.344 459.5,595.5 Z"/></g>
<g><path style="opacity:1" fill="#070e08" d="M 488.5,574.5 C 493.5,574.5 498.5,574.5 503.5,574.5C 503.5,579.833 503.5,585.167 503.5,590.5C 493.399,598.822 483.565,598.489 474,589.5C 465.406,574.859 468.572,563.693 483.5,556C 490.967,554.334 497.633,555.834 503.5,560.5C 502.289,562.422 500.956,564.255 499.5,566C 495.23,565.251 490.896,564.918 486.5,565C 484,566.167 482.167,568 481,570.5C 478.573,581.896 483.073,587.229 494.5,586.5C 494.5,584.5 494.5,582.5 494.5,580.5C 492.5,580.5 490.5,580.5 488.5,580.5C 488.5,578.5 488.5,576.5 488.5,574.5 Z"/></g>
<g><path style="opacity:1" fill="#525954" d="M 363.5,586.5 C 362.506,576.681 362.173,566.681 362.5,556.5C 359.5,556.5 356.5,556.5 353.5,556.5C 353.5,569.5 353.5,582.5 353.5,595.5C 352.504,582.344 352.171,569.01 352.5,555.5C 356.167,555.5 359.833,555.5 363.5,555.5C 363.5,565.833 363.5,576.167 363.5,586.5 Z"/></g>
<g><path style="opacity:1" fill="#e9f0ed" d="M 403.5,578.5 C 401.365,580.369 398.698,581.036 395.5,580.5C 396.288,575.302 397.788,570.302 400,565.5C 401.327,569.808 402.493,574.141 403.5,578.5 Z"/></g>
<g><path style="opacity:1" fill="#e0e7e5" d="M 578.5,578.5 C 577.666,579.748 576.333,580.415 574.5,580.5C 572.955,580.489 571.622,580.156 570.5,579.5C 572.729,563.041 575.395,562.707 578.5,578.5 Z"/></g>
<g><path style="opacity:1" fill="#535955" d="M 488.5,574.5 C 493.64,573.512 498.974,573.179 504.5,573.5C 504.822,579.358 504.489,585.025 503.5,590.5C 503.5,585.167 503.5,579.833 503.5,574.5C 498.5,574.5 493.5,574.5 488.5,574.5 Z"/></g>
<g><path style="opacity:1" fill="#606862" d="M 403.5,578.5 C 404.404,579.209 404.737,580.209 404.5,581.5C 401.287,581.81 398.287,581.477 395.5,580.5C 398.698,581.036 401.365,580.369 403.5,578.5 Z"/></g>
<g><path style="opacity:1" fill="#6a7370" d="M 578.5,578.5 C 579.404,579.209 579.737,580.209 579.5,581.5C 576.102,581.82 572.768,581.487 569.5,580.5C 569.624,579.893 569.957,579.56 570.5,579.5C 571.622,580.156 572.955,580.489 574.5,580.5C 576.333,580.415 577.666,579.748 578.5,578.5 Z"/></g>
<g><path style="opacity:1" fill="#818a85" d="M 617.5,580.5 C 619.5,580.5 621.5,580.5 623.5,580.5C 623.795,582.735 623.461,584.735 622.5,586.5C 622.5,584.833 622.5,583.167 622.5,581.5C 620.585,581.784 618.919,581.451 617.5,580.5 Z"/></g>
<g><path style="opacity:1" fill="#7b877f" d="M 555.5,594.5 C 558.625,595.479 561.958,595.813 565.5,595.5C 561.981,596.808 558.315,596.808 554.5,595.5C 554.624,594.893 554.957,594.56 555.5,594.5 Z"/></g>
<g><path style="opacity:1" fill="#0b110c" d="M 421.5,654.5 C 421.5,643.833 421.5,633.167 421.5,622.5C 417.833,622.5 414.167,622.5 410.5,622.5C 410.5,619.833 410.5,617.167 410.5,614.5C 421.167,614.5 431.833,614.5 442.5,614.5C 442.5,617.5 442.5,620.5 442.5,623.5C 438.833,623.5 435.167,623.5 431.5,623.5C 431.5,633.833 431.5,644.167 431.5,654.5C 428.167,654.5 424.833,654.5 421.5,654.5 Z"/></g>
<g><path style="opacity:1" fill="#070e08" d="M 474.5,614.5 C 477.833,614.5 481.167,614.5 484.5,614.5C 484.926,624.912 484.426,635.246 483,645.5C 479.802,652.106 474.469,655.439 467,655.5C 460.47,655.068 455.47,652.068 452,646.5C 450.601,636.232 450.101,625.898 450.5,615.5C 453.833,615.5 457.167,615.5 460.5,615.5C 460.334,623.84 460.5,632.173 461,640.5C 463.025,645.145 466.525,646.645 471.5,645C 472.717,643.352 473.55,641.519 474,639.5C 474.5,631.173 474.666,622.84 474.5,614.5 Z"/></g>
<g><path style="opacity:1" fill="#030b05" d="M 578.5,615.5 C 585.175,615.334 591.842,615.5 598.5,616C 606.398,618.29 609.231,623.457 607,631.5C 605.969,634.539 604.135,637.039 601.5,639C 604.5,644 607.5,649 610.5,654C 606.833,654.667 603.167,654.667 599.5,654C 596.707,650.919 594.54,647.419 593,643.5C 591.89,641.963 590.39,641.297 588.5,641.5C 588.5,645.833 588.5,650.167 588.5,654.5C 585.167,654.5 581.833,654.5 578.5,654.5C 578.5,641.5 578.5,628.5 578.5,615.5 Z"/></g>
<g><path style="opacity:1" fill="#070e08" d="M 523.5,615.5 C 523.5,617.833 523.5,620.167 523.5,622.5C 519.958,622.187 516.625,622.521 513.5,623.5C 513.5,633.833 513.5,644.167 513.5,654.5C 510.167,654.5 506.833,654.5 503.5,654.5C 503.5,643.833 503.5,633.167 503.5,622.5C 499.833,622.5 496.167,622.5 492.5,622.5C 492.5,619.833 492.5,617.167 492.5,614.5C 503.014,614.172 513.347,614.506 523.5,615.5 Z"/></g>
<g><path style="opacity:1" fill="#060d08" d="M 543.5,614.5 C 564.711,614.198 572.544,624.198 567,644.5C 560.191,654.411 551.024,657.244 539.5,653C 528.951,644.723 526.784,634.556 533,622.5C 535.94,618.963 539.44,616.297 543.5,614.5 Z"/></g>
<g><path style="opacity:1" fill="#777f7b" d="M 523.5,615.5 C 524.473,617.948 524.806,620.615 524.5,623.5C 520.833,623.5 517.167,623.5 513.5,623.5C 516.625,622.521 519.958,622.187 523.5,622.5C 523.5,620.167 523.5,617.833 523.5,615.5 Z"/></g>
<g><path style="opacity:1" fill="#dce2df" d="M 588.5,622.5 C 597.488,621.79 599.822,625.29 595.5,633C 593.19,633.497 590.857,633.663 588.5,633.5C 588.5,629.833 588.5,626.167 588.5,622.5 Z"/></g>
<g><path style="opacity:1" fill="#e9f1ed" d="M 545.5,623.5 C 555.977,623.149 560.144,628.149 558,638.5C 556.154,644.995 551.988,647.162 545.5,645C 543.333,644.167 541.833,642.667 541,640.5C 539.268,633.84 540.768,628.174 545.5,623.5 Z"/></g>
<g><path style="opacity:1" fill="#a4ada8" d="M 410.5,622.5 C 414.167,622.5 417.833,622.5 421.5,622.5C 421.5,633.167 421.5,643.833 421.5,654.5C 420.506,644.347 420.172,634.014 420.5,623.5C 416.958,623.813 413.625,623.479 410.5,622.5 Z"/></g>
<g><path style="opacity:1" fill="#a7afab" d="M 492.5,622.5 C 496.167,622.5 499.833,622.5 503.5,622.5C 503.5,633.167 503.5,643.833 503.5,654.5C 502.506,644.347 502.172,634.014 502.5,623.5C 498.958,623.813 495.625,623.479 492.5,622.5 Z"/></g>
</svg>
